#!OML:ASF F:\VICON\USERDATA\INSTALL\rory3\rory3.ASF
:FULLY-SPECIFIED
:DEGREES
337
root 0.133538 16.936 4.44425 -13.4546 -71.9024 25.7344
lowerback -4.80669 1.44686 2.21747
upperback -3.1652 1.79583 -1.25972
thorax -0.451525 0.835959 -2.4583
lowerneck -9.82762 8.8833 1.48042
upperneck 43.5313 13.3827 -3.71701
head 18.4772 4.61482 0.187808
rclavicle -5.94863e-014 -3.89618e-014
rhumerus -17.043 25.3403 -49.8216
rradius 93.991
rwrist -44.2706
rhand -5.29239 -42.9393
rfingers 7.12502
rthumb 20.5125 -71.8757
lclavicle -5.94863e-014 -3.89618e-014
lhumerus 35.497 7.51313 8.95157
lradius 82.4081
lwrist 50.2259
lhand -18.1738 -19.7022
lfingers 7.12502
lthumb 8.10259 10.1225
rfemur -46.2313 11.7308 6.5717
rtibia 68.6537
rfoot -0.98958 -8.9123
rtoes -34.5689
lfemur -24.6303 -5.71019 -34.9435
ltibia 33.0492
lfoot -18.6398 9.57986
ltoes 18.6181
338
root 0.139602 16.9344 4.43894 -13.2799 -71.7028 25.5568
lowerback -4.74204 1.38018 2.31813
upperback -3.10527 1.70619 -1.22887
thorax -0.429363 0.791729 -2.4879
lowerneck -10.0537 8.81354 1.30062
upperneck 43.8217 13.3613 -3.76474
head 18.7118 4.54105 0.203507
rclavicle -1.96797e-014 -7.95139e-016
rhumerus -17.2128 25.8897 -50.2531
rradius 93.9344
rwrist -44.3585
rhand -5.05739 -42.9411
rfingers 7.12502
rthumb 20.7383 -71.8529
lclavicle -1.96797e-014 -7.95139e-016
lhumerus 35.3845 7.11173 9.13784
lradius 82.8868
lwrist 50.4328
lhand -19.8833 -17.3946
lfingers 7.12502
lthumb 6.45243 12.4871
rfemur -46.2294 11.6156 6.59847
rtibia 68.6564
rfoot -0.633414 -9.11984
rtoes -34.9901
lfemur -24.6666 -6.24322 -34.7468
ltibia 33.217
lfoot -18.8404 9.32185
ltoes 19.0103
339
root 0.144036 16.9339 4.43396 -13.223 -71.5518 25.5606
lowerback -4.73655 1.32335 2.34405
upperback -3.04726 1.63079 -1.22773
thorax -0.37665 0.755629 -2.50407
lowerneck -10.382 8.79276 1.28233
upperneck 44.1218 13.4207 -3.89739
head 19.0194 4.50995 0.173613
rclavicle -4.77083e-015 -3.33958e-014
rhumerus -17.2789 26.2881 -50.7282
rradius 93.7853
rwrist -44.3651
rhand -4.8399 -43.1659
rfingers 7.12502
rthumb 20.9472 -72.0548
lclavicle -4.77083e-015 -3.33958e-014
lhumerus 35.2735 6.72387 9.33727
lradius 83.0647
lwrist 50.4523
lhand -20.9902 -16.4072
lfingers 7.12502
lthumb 5.38378 13.5044
rfemur -46.2817 11.6096 6.54663
rtibia 68.6527
rfoot -0.445608 -9.32339
rtoes -35.1839
lfemur -24.7808 -6.71742 -34.6244
ltibia 33.3603
lfoot -18.9387 9.08447
ltoes 19.5296
340
root 0.143011 16.934 4.42769 -13.0818 -71.5339 25.4295
lowerback -4.7322 1.36409 2.38982
upperback -2.9601 1.68522 -1.27054
thorax -0.28366 0.78515 -2.57016
lowerneck -10.5436 8.77609 1.33653
upperneck 44.1334 13.4084 -3.92761
head 19.0819 4.506 0.158091
rclavicle 8.05078e-015 -6.36111e-015
rhumerus -17.4066 26.3627 -51.4634
rradius 93.373
rwrist -43.928
rhand -3.42233 -42.3482
rfingers 7.12502
rthumb 22.3086 -71.0804
lclavicle 8.05078e-015 -6.36111e-015
lhumerus 35.4179 6.36363 9.58558
lradius 83.2689
lwrist 50.242
lhand -18.7364 -18.6134
lfingers 7.12502
lthumb 7.55956 11.2315
rfemur -46.2602 11.7808 6.60259
rtibia 68.6421
rfoot -0.318894 -9.54715
rtoes -35.4904
lfemur -24.8929 -6.73683 -34.597
ltibia 33.4736
lfoot -18.9135 9.15187
ltoes 19.4805
341
root 0.141138 16.9263 4.42287 -12.7842 -71.4957 25.1118
lowerback -4.72905 1.36547 2.44203
upperback -2.89972 1.68632 -1.25469
thorax -0.222311 0.787401 -2.58231
lowerneck -10.4859 8.76014 1.3162
upperneck 44.0406 13.3729 -3.90664
head 18.9973 4.5013 0.161817
rclavicle 7.83212e-014 -3.18055e-015
rhumerus -17.6604 26.9833 -52.0007
rradius 93.2914
rwrist -43.684
rhand -4.3624 -42.6683
rfingers 7.12502
rthumb 21.4059 -71.5058
lclavicle 7.83212e-014 -3.18055e-015
lhumerus 35.373 5.90151 9.82738
lradius 83.8101
lwrist 50.3022
lhand -16.8972 -20.6034
lfingers 7.12502
lthumb 9.33458 9.16995
rfemur -46.2218 11.9041 6.68509
rtibia 68.6865
rfoot -0.559887 -9.78265
rtoes -34.8668
lfemur -24.9932 -6.34411 -34.7148
ltibia 33.5464
lfoot -18.724 9.50351
ltoes 18.8854
342
root 0.142694 16.9162 4.41742 -12.7292 -71.3141 25.1174
lowerback -4.73262 1.24556 2.26319
upperback -2.90449 1.53301 -1.17626
thorax -0.241159 0.712973 -2.40838
lowerneck -10.329 8.80213 1.1161
upperneck 43.9772 13.4189 -3.77099
head 18.8731 4.51505 0.258113
rclavicle -2.68359e-015 -9.54166e-015
rhumerus -17.9132 28.2668 -52.2396
rradius 93.6649
rwrist -43.9567
rhand -4.44095 -42.6512
rfingers 7.12502
rthumb 21.3305 -71.4973
lclavicle -2.68359e-015 -9.54166e-015
lhumerus 35.0474 5.36248 9.92787
lradius 84.1916
lwrist 50.953
lhand -17.6551 -18.8411
lfingers 7.12502
lthumb 8.60323 10.9636
rfemur -46.2605 11.8981 6.55757
rtibia 68.7835
rfoot -1.27864 -9.939
rtoes -33.0489
lfemur -25.1131 -6.21523 -34.8931
ltibia 33.5952
lfoot -18.5681 9.70472
ltoes 18.5605
343
root 0.144968 16.9088 4.41221 -13.1482 -71.1492 25.602
lowerback -4.70001 1.12962 2.00484
upperback -2.92247 1.38854 -1.13248
thorax -0.29286 0.643086 -2.22581
lowerneck -10.0957 8.86916 0.842943
upperneck 43.9596 13.5548 -3.72235
head 18.7682 4.53791 0.336598
rclavicle 3.61788e-014 -9.54166e-015
rhumerus -17.7518 28.2875 -53.0804
rradius 92.8525
rwrist -43.6541
rhand -3.45725 -42.6089
rfingers 7.12502
rthumb 22.2751 -71.3451
lclavicle 3.61788e-014 -9.54166e-015
lhumerus 34.6098 4.7804 10.0419
lradius 84.5113
lwrist 51.1102
lhand -16.5933 -20.884
lfingers 7.12502
lthumb 9.62772 8.87596
rfemur -46.281 11.9099 6.26268
rtibia 68.8757
rfoot -2.05347 -9.83313
rtoes -31.6546
lfemur -25.1768 -6.27922 -35.0987
ltibia 33.6396
lfoot -18.5957 9.60771
ltoes 18.8553
344
root 0.144784 16.9053 4.40658 -13.2908 -71.0693 25.7515
lowerback -4.68633 1.11245 1.96066
upperback -2.87071 1.36863 -1.14234
thorax -0.249032 0.635113 -2.21169
lowerneck -9.88304 8.8564 0.545778
upperneck 44.0839 13.628 -3.79966
head 18.7751 4.50146 0.34872
rclavicle 8.44835e-016 2.78299e-014
rhumerus -17.8417 28.4565 -53.7327
rradius 92.4417
rwrist -43.5807
rhand -3.87218 -42.7673
rfingers 7.12502
rthumb 21.8767 -71.5506
lclavicle 8.44835e-016 2.78299e-014
lhumerus 34.38 4.2164 10.345
lradius 84.971
lwrist 50.6379
lhand -16.1571 -21.931
lfingers 7.12502
lthumb 10.0486 7.80915
rfemur -46.2184 12.0318 6.0409
rtibia 68.9369
rfoot -3.33585 -9.59991
rtoes -28.1135
lfemur -25.2054 -6.12904 -35.187
ltibia 33.6942
lfoot -18.6395 9.35807
ltoes 18.9837
345
root 0.143901 16.9042 4.39714 -12.911 -70.961 25.3867
lowerback -4.72624 1.20937 2.08518
upperback -2.77445 1.49435 -1.24883
thorax -0.115575 0.699334 -2.38331
lowerneck -10.5996 8.59345 1.01088
upperneck 44.6969 13.2909 -4.10839
head 19.4638 4.33209 0.101385
rclavicle -1.30204e-014 2.22639e-014
rhumerus -18.3145 28.3779 -54.492
rradius 92.2051
rwrist -43.253
rhand -4.53959 -42.819
rfingers 7.12502
rthumb 21.2357 -71.6758
lclavicle -1.30204e-014 2.22639e-014
lhumerus 34.2277 3.09669 11.6804
lradius 85.7422
lwrist 49.2818
lhand -16.7957 -21.0333
lfingers 7.12502
lthumb 9.43247 8.73559
rfemur -46.1643 12.0627 6.05958
rtibia 68.9376
rfoot -4.21109 -9.51799
rtoes -25.0424
lfemur -25.2858 -6.08718 -35.0854
ltibia 33.7699
lfoot -18.6773 9.24815
ltoes 18.7263
346
root 0.144231 16.9023 4.39012 -12.7423 -70.84 25.2636
lowerback -4.75503 1.34 2.17615
upperback -2.71388 1.66603 -1.47936
thorax -0.018583 0.785132 -2.66198
lowerneck -10.6851 8.31044 1.09991
upperneck 44.8747 12.7608 -3.97027
head 19.5685 4.1428 0.0537713
rclavicle -4.91992e-015 1.59028e-015
rhumerus -19.1138 28.2261 -55.4502
rradius 92.1787
rwrist -42.9139
rhand -4.50751 -42.6437
rfingers 7.12502
rthumb 21.2665 -71.497
lclavicle -4.91992e-015 1.59028e-015
lhumerus 35.5957 3.27426 10.5657
lradius 85.438
lwrist 50.4623
lhand -17.0886 -20.3848
lfingers 7.12502
lthumb 9.14986 9.39673
rfemur -46.1485 11.9554 6.12409
rtibia 68.9012
rfoot -3.92044 -9.76865
rtoes -26.6448
lfemur -25.345 -6.38894 -34.9623
ltibia 33.8542
lfoot -18.7865 9.11975
ltoes 18.9405
347
root 0.14603 16.902 4.38941 -12.6722 -70.7168 25.2094
lowerback -4.73178 1.31614 2.22449
upperback -2.68108 1.6337 -1.64039
thorax 0.00588158 0.768317 -2.85684
lowerneck -10.9414 8.21486 1.58202
upperneck 44.9873 12.4902 -3.99161
head 19.7579 4.09974 -0.0775242
rclavicle -1.59028e-014 -1.66979e-014
rhumerus -19.6678 28.5984 -56.2215
rradius 92.3453
rwrist -42.8382
rhand -3.13783 -42.2996
rfingers 7.12502
rthumb 22.5817 -70.9989
lclavicle -1.59028e-014 -1.66979e-014
lhumerus 35.7854 2.84985 10.5718
lradius 85.6294
lwrist 50.0716
lhand -15.991 -21.3923
lfingers 7.12502
lthumb 10.2089 8.34003
rfemur -46.0858 11.8113 6.19702
rtibia 68.8631
rfoot -3.22617 -10.1862
rtoes -29.4888
lfemur -25.3169 -6.82964 -34.8014
ltibia 33.9528
lfoot -18.8884 8.77932
ltoes 19.3347
348
root 0.147246 16.8992 4.38969 -12.5216 -70.5459 25.0864
lowerback -4.77067 1.26531 2.25329
upperback -2.59331 1.56589 -1.7056
thorax 0.115753 0.736928 -2.94174
lowerneck -11.3514 8.16619 1.93834
upperneck 45.1998 12.4315 -4.21327
head 20.0949 4.08032 -0.23958
rclavicle 3.69739e-014 -1.59028e-015
rhumerus -19.6597 28.8329 -56.9958
rradius 91.9589
rwrist -42.5097
rhand -6.25389 -43.6459
rfingers 7.12502
rthumb 19.5883 -72.6791
lclavicle 3.69739e-014 -1.59028e-015
lhumerus 35.9455 2.54258 10.7486
lradius 85.8241
lwrist 50.2239
lhand -14.99 -21.9423
lfingers 7.12502
lthumb 11.1744 7.74012
rfemur -46.04 11.6925 6.25558
rtibia 68.85
rfoot -2.83046 -10.5873
rtoes -31.0157
lfemur -25.3812 -7.03055 -34.8038
ltibia 34.0699
lfoot -18.8496 8.84401
ltoes 18.9047
349
root 0.149707 16.8898 4.38684 -12.3816 -70.3679 25.0333
lowerback -4.87553 1.37468 2.30365
upperback -2.47327 1.71051 -1.83017
thorax 0.312414 0.813387 -3.08712
lowerneck -11.8673 8.00692 2.29018
upperneck 45.6358 12.2508 -4.52704
head 20.6398 3.98625 -0.474779
rclavicle 6.29153e-014 -1.11319e-014
rhumerus -19.5769 28.3909 -58.2477
rradius 90.8894
rwrist -41.5717
rhand -4.07674 -42.3918
rfingers 7.12502
rthumb 21.6803 -71.1979
lclavicle 6.29153e-014 -1.11319e-014
lhumerus 36.4685 2.18095 11.2101
lradius 85.9889
lwrist 50.4493
lhand -15.0916 -21.2203
lfingers 7.12502
lthumb 11.0764 8.46744
rfemur -46.1113 11.6612 6.22654
rtibia 68.8914
rfoot -2.76177 -10.8285
rtoes -31.5274
lfemur -25.6075 -6.86207 -34.997
ltibia 34.1856
lfoot -18.7241 9.13253
ltoes 18.4006
